<svg width="205" height="82" viewBox="0 0 205 82" fill="none" xmlns="http://www.w3.org/2000/svg">
<ellipse cx="42" cy="41" rx="42" ry="41" fill="#1B2129"/>
<path d="M22.4062 22.9141V61.0234H16.0781V22.9141H22.4062ZM38.0391 47.3594C37.4141 48.9688 36.4531 50.1484 35.1562 50.8984C33.8594 51.6328 31.9766 52 29.5078 52H27.9141V46.3281H28.3125C29.3906 46.3281 30.25 46.125 30.8906 45.7188C31.5156 45.3125 31.9609 44.6953 32.2266 43.8672C32.4922 43.0234 32.625 41.75 32.625 40.0469V28.5859H28.1719V22.9141H44.4844C48.9844 22.9141 52.2109 23.8672 54.1641 25.7734C56.1328 27.6641 57.1172 30.8047 57.1172 35.1953V52H50.7656V35.2891C50.7656 32.7891 50.2578 31.0469 49.2422 30.0625C48.2266 29.0781 46.5156 28.5859 44.1094 28.5859H38.9531V40.8672C38.9531 43.5703 38.6484 45.7344 38.0391 47.3594ZM70.3594 22.9141V38.3594H64.0312V22.9141H70.3594ZM92.2734 34.375V52H77.1094V46.3281H85.9453V35.5938C85.9453 33.4844 85.8047 31.9766 85.5234 31.0703C85.2422 30.1797 84.7734 29.5469 84.1172 29.1719C83.4609 28.7812 82.5 28.5859 81.2344 28.5859H78.4453V22.9141H82.4297C85.1172 22.9141 87.125 23.2734 88.4531 23.9922C89.7812 24.7109 90.75 25.8906 91.3594 27.5312C91.9688 29.1719 92.2734 31.4531 92.2734 34.375ZM120.047 38.0312C120.047 47.3438 115.297 52 105.797 52H98.0156V46.3281H105.445C108.242 46.3281 110.312 45.625 111.656 44.2188C113 42.8125 113.672 40.6719 113.672 37.7969V37.1641C113.672 34.2422 113 32.0859 111.656 30.6953C110.312 29.2891 108.273 28.5859 105.539 28.5859H98.0156V22.9141H106.125C115.406 22.9141 120.047 27.5547 120.047 36.8359V38.0312ZM133.125 22.9141V52H126.797V22.9141H133.125ZM148.758 47.3594C148.133 48.9688 147.172 50.1484 145.875 50.8984C144.578 51.6328 142.695 52 140.227 52H138.633V46.3281H139.031C140.109 46.3281 140.969 46.125 141.609 45.7188C142.234 45.3125 142.68 44.6953 142.945 43.8672C143.211 43.0234 143.344 41.75 143.344 40.0469V28.5859H138.891V22.9141H155.203C159.703 22.9141 162.93 23.8672 164.883 25.7734C166.852 27.6641 167.836 30.8047 167.836 35.1953V52H161.484V35.2891C161.484 32.7891 160.977 31.0469 159.961 30.0625C158.945 29.0781 157.234 28.5859 154.828 28.5859H149.672V40.8672C149.672 43.5703 149.367 45.7344 148.758 47.3594ZM200.273 35.1484V52H193.922V35.1016C193.922 32.7109 193.414 31.0312 192.398 30.0625C191.383 29.0781 189.617 28.5859 187.102 28.5859H175.219V22.9141H187.5C190.578 22.9141 193.047 23.3281 194.906 24.1562C196.781 24.9844 198.141 26.2969 198.984 28.0938C199.844 29.875 200.273 32.2266 200.273 35.1484ZM182.016 34.3281V52H175.688V34.3281H182.016Z" fill="white"/>
<ellipse cx="60" cy="65.5" rx="9" ry="8.5" fill="#00ADB5"/>
<ellipse cx="33" cy="8.5" rx="9" ry="8.5" fill="#FF6B00"/>
</svg>
